<?xml version="1.0" encoding="utf-8"?>
<!-- Generator: Adobe Illustrator 25.2.0, SVG Export Plug-In . SVG Version: 6.00 Build 0)  -->
<svg version="1.1" id="Layer_1" xmlns="http://www.w3.org/2000/svg" xmlns:xlink="http://www.w3.org/1999/xlink" x="0px" y="0px"
	 viewBox="0 0 1000 200" style="enable-background:new 0 0 1000 200;" xml:space="preserve">
<style type="text/css">
	.st0{fill:#3559A8;}
	.st1{fill:#FFFFFF;}
	.st2{fill:none;stroke:#D8D8D8;stroke-width:11;stroke-miterlimit:10;}
</style>
<rect class="st0" width="1000" height="200"/>
<g>
	<path class="st1" d="M381.45,125.37h14.95c1.15,0,2.15,0.4,2.99,1.21c0.84,0.81,1.26,1.78,1.26,2.93c0,1.15-0.42,2.13-1.26,2.93
		c-0.84,0.81-1.83,1.21-2.98,1.21h-15.49c-1.97,0-4.01-0.62-6.12-1.87c-2.1-1.25-3.57-2.65-4.39-4.19l-9.57-18.49
		c-1.28-2.66-1.92-5.39-1.92-8.19c0-3.09,0.61-5.77,1.82-8.04l9.67-18.3c0.92-1.71,2.35-3.21,4.29-4.51
		c1.94-1.3,3.81-1.95,5.62-1.95h16.37c1.15,0,2.13,0.41,2.93,1.23c0.81,0.82,1.21,1.79,1.21,2.91c0,1.15-0.4,2.15-1.21,2.98
		c-0.81,0.84-1.78,1.26-2.93,1.26h-15.77c-1.31,0-2.38,0.78-3.21,2.32l-9.19,17.15c-0.73,1.35-1.08,2.94-1.08,4.79
		c0,1.94,0.39,3.65,1.18,5.13l8.77,16.87C378.22,124.5,379.57,125.37,381.45,125.37z"/>
	<path class="st1" d="M461.45,101.01v17.51c0,3.72-1.75,7.15-5.25,10.31c-3.5,3.16-7.11,4.73-10.82,4.73h-9.72
		c-3.78,0-7.4-1.6-10.85-4.81c-3.45-3.21-5.18-6.62-5.18-10.23v-17.51c0-3.62,1.68-7.03,5.06-10.23c3.37-3.21,7.03-4.81,10.97-4.81
		h9.72c3.71-0.07,7.32,1.48,10.82,4.64C459.7,93.76,461.45,97.23,461.45,101.01z M428.02,101.35v16.77c0,1.51,0.54,2.71,1.63,3.6
		l3.11,2.66c0.69,0.59,1.66,0.89,2.91,0.89h9.62c1.41,0,2.7-0.51,3.85-1.53l2.52-2.22c1.02-0.79,1.53-1.89,1.53-3.3v-16.77
		c0-1.64-0.51-2.86-1.53-3.65l-2.91-2.32c-0.99-0.82-2.14-1.23-3.45-1.23h-8.58c-1.87,0-3.32,0.44-4.34,1.33L429.54,98
		C428.52,98.85,428.02,99.97,428.02,101.35z"/>
	<path class="st1" d="M500.34,95.68l-11.32,7.35v26.48c0,1.12-0.41,2.09-1.23,2.91c-0.82,0.82-1.79,1.23-2.91,1.23
		c-1.12,0-2.09-0.41-2.91-1.23c-0.82-0.82-1.23-1.79-1.23-2.91V90.21c0-1.15,0.4-2.15,1.21-2.98c0.81-0.84,1.78-1.26,2.93-1.26
		c1.12,0,2.09,0.42,2.91,1.26c0.82,0.84,1.23,1.83,1.23,2.98v2.76l7.56-4.59c2.54-1.61,5.4-2.42,8.59-2.42h3.85
		c3.29,0,6.14,1.17,8.54,3.5c2.4,2.33,3.67,5.21,3.8,8.63l1.13,31.41c0.03,1.12-0.36,2.09-1.18,2.91c-0.82,0.82-1.81,1.23-2.96,1.23
		c-1.08,0-2.04-0.37-2.86-1.11c-0.82-0.74-1.25-1.75-1.28-3.03l-1.23-30.92c-0.1-2.89-1.61-4.34-4.55-4.34h-4.05
		C503.14,94.25,501.79,94.73,500.34,95.68z"/>
	<path class="st1" d="M561.34,95.68l-11.32,7.35v26.48c0,1.12-0.41,2.09-1.23,2.91c-0.82,0.82-1.79,1.23-2.91,1.23
		c-1.12,0-2.09-0.41-2.91-1.23c-0.82-0.82-1.23-1.79-1.23-2.91V90.21c0-1.15,0.4-2.15,1.21-2.98c0.81-0.84,1.78-1.26,2.93-1.26
		c1.12,0,2.09,0.42,2.91,1.26c0.82,0.84,1.23,1.83,1.23,2.98v2.76l7.56-4.59c2.54-1.61,5.4-2.42,8.59-2.42h3.85
		c3.29,0,6.14,1.17,8.54,3.5c2.4,2.33,3.67,5.21,3.8,8.63l1.13,31.41c0.03,1.12-0.36,2.09-1.18,2.91c-0.82,0.82-1.81,1.23-2.96,1.23
		c-1.08,0-2.04-0.37-2.86-1.11c-0.82-0.74-1.25-1.75-1.28-3.03l-1.23-30.92c-0.1-2.89-1.62-4.34-4.55-4.34h-4.05
		C564.14,94.25,562.79,94.73,561.34,95.68z"/>
	<path class="st1" d="M644.46,101.65v10.01c0,1.12-0.41,2.09-1.23,2.91c-0.82,0.82-1.79,1.23-2.91,1.23h-29.29v2.42
		c0,1.41,0.61,2.61,1.82,3.6l2.42,2.02c1.32,1.02,2.56,1.53,3.75,1.53h21.3c1.12,0,2.09,0.4,2.91,1.21
		c0.82,0.81,1.23,1.78,1.23,2.93c0,1.12-0.42,2.09-1.26,2.91c-0.84,0.82-1.8,1.23-2.89,1.23h-21.85c-1.45,0-2.97-0.3-4.56-0.91
		c-1.6-0.61-2.77-1.24-3.53-1.9l-3.7-3.25c-1.15-0.92-2.11-2.2-2.89-3.85c-0.77-1.64-1.16-3.16-1.16-4.54v-18.99
		c0-1.08,0.42-2.55,1.26-4.39c0.84-1.84,1.9-3.27,3.18-4.29l3.45-2.71c2.27-1.84,4.78-2.76,7.55-2.76h11.64
		c2.93,0,5.69,1.22,8.29,3.65l3.11,2.96C643.35,94.68,644.46,97.67,644.46,101.65z M611.13,101.01v6.41h25.15v-5.77
		c0-1.55-0.48-2.73-1.43-3.55l-2.42-2.12c-1.25-1.02-2.37-1.53-3.35-1.53h-10.41c-1.28,0-2.45,0.44-3.5,1.33l-2.42,2.02
		C611.67,98.62,611.13,99.69,611.13,101.01z"/>
	<path class="st1" d="M701.43,133.65h-17.71c-3.12,0-5.79-0.94-7.99-2.81l-8.04-7c-2.56-2.14-3.85-5.03-3.85-8.68v-10.8
		c-0.13-3.52,1.32-6.58,4.34-9.17l7.25-6.26c2.33-1.91,4.83-2.86,7.5-2.86h18.59c1.15,0,2.13,0.4,2.93,1.21s1.21,1.78,1.21,2.93
		c0,1.18-0.4,2.17-1.21,2.96s-1.78,1.18-2.93,1.18h-17.8c-1.12,0-2.19,0.44-3.21,1.33l-6.66,5.67c-1.08,0.92-1.63,2.15-1.63,3.7
		v10.11c0,1.08,0.43,2.01,1.28,2.76l7.3,6.21c0.92,0.82,2.14,1.23,3.65,1.23h16.96c1.12,0,2.09,0.4,2.91,1.21
		c0.82,0.81,1.23,1.78,1.23,2.93c0,1.15-0.4,2.13-1.21,2.93S702.58,133.65,701.43,133.65z"/>
	<path class="st1" d="M753.85,133.65h-8.29c-3.42,0-6.36-1.22-8.83-3.65c-2.47-2.43-3.7-5.36-3.7-8.78V94.35h-4.24
		c-1.15,0-2.13-0.39-2.93-1.18c-0.81-0.79-1.21-1.78-1.21-2.96c0-1.15,0.4-2.13,1.21-2.93c0.8-0.81,1.78-1.21,2.93-1.21h4.34V75.9
		c0-1.15,0.4-2.13,1.21-2.93c0.8-0.81,1.78-1.21,2.93-1.21c1.09,0,2.05,0.41,2.89,1.23c0.84,0.82,1.26,1.79,1.26,2.91v10.16h16.67
		c1.12,0,2.09,0.41,2.91,1.23c0.82,0.82,1.23,1.79,1.23,2.91c0,1.15-0.41,2.13-1.23,2.93c-0.82,0.81-1.79,1.21-2.91,1.21h-16.77
		v26.88c0,1.12,0.42,2.09,1.26,2.91c0.84,0.82,1.83,1.23,2.98,1.23h8.09c2.2,0,3.67-1.19,4.39-3.58c0.72-2.38,2.12-3.58,4.19-3.58
		c1.22,0,2.21,0.4,2.98,1.21c0.77,0.81,1.16,1.82,1.16,3.03c0,2.5-1.18,4.99-3.53,7.47C760.5,132.41,757.5,133.65,753.85,133.65z"/>
</g>
<polygon class="st2" points="312.65,121.34 274.41,143.42 236.18,121.34 236.18,77.19 274.41,55.11 312.65,77.19 "/>
<g>
</g>
<g>
</g>
<g>
</g>
<g>
</g>
<g>
</g>
<g>
</g>
</svg>
