<?xml version="1.0" encoding="utf-8"?>
<!-- Generator: Adobe Illustrator 25.2.0, SVG Export Plug-In . SVG Version: 6.00 Build 0)  -->
<svg version="1.1" id="Layer_1" xmlns="http://www.w3.org/2000/svg" xmlns:xlink="http://www.w3.org/1999/xlink" x="0px" y="0px"
	 viewBox="0 0 1000 1000" style="enable-background:new 0 0 1000 1000;" xml:space="preserve">
<g>
	<path d="M499.85,124.14L825.7,312.27l0,376.27L499.85,876.67L173.99,688.54l0-376.27L499.85,124.14 M499.85,32.68
		c-7.47,0-14.94,1.93-21.63,5.8L110.62,250.71c-13.39,7.73-21.63,22.01-21.63,37.47l0,424.45c0,15.46,8.25,29.74,21.63,37.47
		l367.59,212.23c6.69,3.86,14.16,5.8,21.63,5.8c7.47,0,14.94-1.93,21.63-5.8L889.07,750.1c13.39-7.73,21.63-22.01,21.63-37.47
		l0-424.45c0-15.46-8.25-29.74-21.63-37.47L521.48,38.48C514.79,34.62,507.32,32.68,499.85,32.68L499.85,32.68z"/>
</g>
<g>
</g>
<g>
</g>
<g>
</g>
<g>
</g>
<g>
</g>
<g>
</g>
<g>
</g>
<g>
</g>
<g>
</g>
<g>
</g>
<g>
</g>
<g>
</g>
<g>
</g>
<g>
</g>
<g>
</g>
</svg>
